<?xml version="1.0" encoding="UTF-8" standalone="no"?>
<!-- Generator: Adobe Illustrator 19.0.0, SVG Export Plug-In . SVG Version: 6.00 Build 0)  -->

<svg
   xmlns:dc="http://purl.org/dc/elements/1.1/"
   xmlns:cc="http://creativecommons.org/ns#"
   xmlns:rdf="http://www.w3.org/1999/02/22-rdf-syntax-ns#"
   xmlns:svg="http://www.w3.org/2000/svg"
   xmlns="http://www.w3.org/2000/svg"
   xmlns:sodipodi="http://sodipodi.sourceforge.net/DTD/sodipodi-0.dtd"
   xmlns:inkscape="http://www.inkscape.org/namespaces/inkscape"
   version="1.1"
   id="Capa_1"
   x="0px"
   y="0px"
   viewBox="0 0 60 60"
   style="enable-background:new 0 0 60 60;"
   xml:space="preserve"
   width="512px"
   height="512px"
   inkscape:version="0.48.5 r10040"
   sodipodi:docname="logo.svg"
   inkscape:export-filename="/home/martin/public_html/facebook-api/fb-page-calendar/logo-huge.png"
   inkscape:export-xdpi="180"
   inkscape:export-ydpi="180"><metadata
     id="metadata65"><rdf:RDF><cc:Work
         rdf:about=""><dc:format>image/svg+xml</dc:format><dc:type
           rdf:resource="http://purl.org/dc/dcmitype/StillImage" /><dc:title></dc:title><dc:creator><cc:Agent><dc:title>m@rtlin</dc:title></cc:Agent></dc:creator><dc:language>czech</dc:language></cc:Work></rdf:RDF></metadata><defs
     id="defs63" /><sodipodi:namedview
     pagecolor="#3b5998"
     bordercolor="#666666"
     borderopacity="1"
     objecttolerance="10"
     gridtolerance="10"
     guidetolerance="10"
     inkscape:pageopacity="1"
     inkscape:pageshadow="2"
     inkscape:window-width="1366"
     inkscape:window-height="719"
     id="namedview61"
     showgrid="false"
     inkscape:zoom="2.56"
     inkscape:cx="226.63405"
     inkscape:cy="172.80095"
     inkscape:window-x="0"
     inkscape:window-y="0"
     inkscape:window-maximized="1"
     inkscape:current-layer="g3" /><g
     id="g3"
     style="fill:#ffffff;fill-opacity:1"
     transform="matrix(1.0590194,0,0,1,-1.6434625,0)"><rect
       x="22"
       y="43"
       width="7"
       height="7"
       id="rect5"
       style="fill:#ffffff;fill-opacity:1" /><rect
       x="22"
       y="25"
       width="7"
       height="7"
       id="rect7"
       style="fill:#ffffff;fill-opacity:1" /><rect
       x="22"
       y="34"
       width="7"
       height="7"
       id="rect9"
       style="fill:#ffffff;fill-opacity:1" /><rect
       x="13"
       y="34"
       width="7"
       height="7"
       id="rect11"
       style="fill:#ffffff;fill-opacity:1" /><rect
       x="13"
       y="25"
       width="7"
       height="7"
       id="rect13"
       style="fill:#ffffff;fill-opacity:1" /><rect
       x="13"
       y="43"
       width="7"
       height="7"
       id="rect15"
       style="fill:#ffffff;fill-opacity:1" /><rect
       x="40"
       y="25"
       width="7"
       height="7"
       id="rect17"
       style="fill:#ffffff;fill-opacity:1" /><path
       d="M 57,4 H 50 V 1 C 50,0.447 49.553,0 49,0 H 42 C 41.447,0 41,0.447 41,1 V 4 H 19 V 1 C 19,0.447 18.553,0 18,0 H 11 C 10.447,0 10,0.447 10,1 V 4 H 3 C 2.447,4 2,4.447 2,5 v 11 43 c 0,0.553 0.447,1 1,1 h 54 c 0.553,0 1,-0.447 1,-1 V 16 5 C 58,4.447 57.553,4 57,4 z m -8,28 v 2 7 2 9 h -9 -2 -7 -2 -7 -2 -9 v -9 -2 -7 -2 -9 h 9 2 7 2 7 2 9 v 9 z M 56,15 H 4 V 6 h 6 v 3 c 0,0.553 0.447,1 1,1 h 7 c 0.553,0 1,-0.447 1,-1 V 6 h 22 v 3 c 0,0.553 0.447,1 1,1 h 7 c 0.553,0 1,-0.447 1,-1 V 6 h 6 v 9 z"
       id="path19"
       style="fill:#ffffff;fill-opacity:1"
       inkscape:connector-curvature="0" /><rect
       x="40"
       y="34"
       width="7"
       height="7"
       id="rect21"
       style="fill:#ffffff;fill-opacity:1" /><rect
       x="40"
       y="43"
       width="7"
       height="7"
       id="rect23"
       style="fill:#ffffff;fill-opacity:1" /><rect
       x="31"
       y="43"
       width="7"
       height="7"
       id="rect25"
       style="fill:#ffffff;fill-opacity:1" /><rect
       x="31"
       y="34"
       width="7"
       height="7"
       id="rect27"
       style="fill:#ffffff;fill-opacity:1" /><rect
       x="31"
       y="25"
       width="7"
       height="7"
       id="rect29"
       style="fill:#ffffff;fill-opacity:1" /></g><g
     id="g31" /><g
     id="g33" /><g
     id="g35" /><g
     id="g37" /><g
     id="g39" /><g
     id="g41" /><g
     id="g43" /><g
     id="g45" /><g
     id="g47" /><g
     id="g49" /><g
     id="g51" /><g
     id="g53" /><g
     id="g55" /><g
     id="g57" /><g
     id="g59" /><g
     id="g2989"
     transform="matrix(0.47011598,0,0,0.47006078,12.208974,24.082168)"><rect
       style="fill:#3b5998"
       y="0"
       x="-0.37953055"
       id="rect6"
       height="36.75906"
       width="36.75906" /><path
       style="fill:#ffffff"
       inkscape:connector-curvature="0"
       id="path8"
       d="m 30.895,16.535 -0.553,5.23 h -4.181 v 15.176 h -6.28 V 21.766 H 16.75 v -5.23 h 3.131 v -3.149 c 0,-4.254 1.768,-6.796 6.796,-6.796 h 4.181 v 5.23 h -2.615 c -1.952,0 -2.081,0.736 -2.081,2.1 v 2.615 h 4.733 z" /></g></svg>